#N canvas -10 87 983 570 16;
#X obj 80 84 delwrite~ del 3000;
#X obj 169 253 delread~ del;
#X obj 4 48 sfplay~;
#X obj 133 515 output~;
#X obj 423 425 *~;
#X floatatom 508 384 5 0 1 0 - - -;
#X obj 308 252 delread~ del;
#X obj 446 252 delread~ del;
#X obj 585 251 delread~ del;
#X obj 215 407 *~ 1;
#X obj 171 165 random 900;
#X obj 171 200 + 100;
#X obj 309 166 random 900;
#X obj 309 201 + 100;
#X obj 448 170 random 900;
#X obj 448 205 + 100;
#X obj 587 172 random 900;
#X obj 587 207 + 100;
#X obj 446 94 bng 15 250 50 0 empty empty empty 17 7 0 10 -262144 -1
-1;
#X floatatom 234 200 5 0 0 0 - - -;
#X floatatom 379 202 5 0 0 0 - - -;
#X floatatom 519 207 5 0 0 0 - - -;
#X floatatom 656 209 5 0 0 0 - - -;
#X connect 1 0 4 0;
#X connect 1 0 9 0;
#X connect 2 0 0 0;
#X connect 2 0 3 0;
#X connect 2 0 3 1;
#X connect 4 0 0 0;
#X connect 5 0 4 1;
#X connect 6 0 4 0;
#X connect 6 0 9 0;
#X connect 7 0 4 0;
#X connect 7 0 9 0;
#X connect 8 0 4 0;
#X connect 8 0 9 0;
#X connect 9 0 3 0;
#X connect 9 0 3 1;
#X connect 10 0 11 0;
#X connect 11 0 1 0;
#X connect 11 0 19 0;
#X connect 12 0 13 0;
#X connect 13 0 6 0;
#X connect 13 0 20 0;
#X connect 14 0 15 0;
#X connect 15 0 7 0;
#X connect 15 0 21 0;
#X connect 16 0 17 0;
#X connect 17 0 8 0;
#X connect 17 0 22 0;
#X connect 18 0 10 0;
#X connect 18 0 12 0;
#X connect 18 0 14 0;
#X connect 18 0 16 0;
