#N canvas -10 87 983 570 16;
#X obj 80 84 delwrite~ del 3000;
#X obj 4 48 sfplay~;
#X obj 111 500 output~;
#X obj 190 340 *~;
#X floatatom 219 308 5 0 1 0 - - -;
#X obj 157 422 *~ 1;
#X obj 170 212 vd~ del;
#X obj 367 44 osc~;
#X obj 366 84 +~ 1;
#X obj 365 122 /~ 2;
#X obj 364 179 *~;
#X floatatom 428 141 5 0 0 0 - - -;
#X floatatom 367 2 5 0 0 0 - - -;
#X connect 1 0 0 0;
#X connect 1 0 2 0;
#X connect 1 0 2 1;
#X connect 3 0 0 0;
#X connect 4 0 3 1;
#X connect 5 0 2 0;
#X connect 5 0 2 1;
#X connect 6 0 3 0;
#X connect 6 0 5 0;
#X connect 7 0 8 0;
#X connect 8 0 9 0;
#X connect 9 0 10 0;
#X connect 10 0 6 0;
#X connect 11 0 10 1;
#X connect 12 0 7 0;
