#N canvas 57 43 753 524 16;
#X obj 138 99 sfplay~;
#X obj 152 408 output~;
#X obj 28 3688 delwrite~;
#X obj 28 3718 delread~;
#X obj 38 3698 delwrite~;
#X obj 38 3728 delread~;
#X obj 186 243 delread~ midelay;
#X floatatom 237 198 5 0 0 0 - - -;
#X obj 188 161 delwrite~ midelay 3000;
#X obj 138 301 +~;
#X obj 514 157 osc~ 300;
#X obj 622 160 osc~ 300;
#X floatatom 624 119 5 0 0 0 - - -;
#X obj 34 369 *~;
#X floatatom 57 266 5 0 1 0 - - -;
#X obj 246 334 vu~;
#X connect 0 0 8 0;
#X connect 0 0 9 0;
#X connect 6 0 9 1;
#X connect 7 0 6 0;
#X connect 9 0 1 0;
#X connect 9 0 1 1;
#X connect 9 0 13 0;
#X connect 9 0 15 0;
#X connect 12 0 11 0;
#X connect 13 0 8 0;
#X connect 14 0 13 1;
