#N canvas 120 105 675 423 10;
#X obj 153 51 osc~;
#X obj 157 217 osc~;
#X obj 156 170 +~;
#X obj 155 99 *~;
#X text 86 -3 f mod;
#X text 350 18 A mod;
#X text 377 85 f port;
#X obj 152 0 r fmod;
#X obj 278 18 r amod;
#X obj 363 113 r fport;
#X obj 146 337 dac~;
#X obj 161 283 *~;
#X obj 227 240 r amp;
#X msg 313 230 \; pd dsp \$1;
#X obj 313 186 r on-off;
#X msg 510 139 \; rfmod 100 \; ramod 432 \; rfport 141;
#X obj 515 85 loadbang;
#X connect 0 0 3 0;
#X connect 1 0 11 0;
#X connect 2 0 1 0;
#X connect 3 0 2 0;
#X connect 7 0 0 0;
#X connect 8 0 3 1;
#X connect 9 0 2 1;
#X connect 11 0 10 0;
#X connect 11 0 10 1;
#X connect 12 0 11 1;
#X connect 14 0 13 0;
#X connect 16 0 15 0;
